<svg width="24" height="24" viewBox="0 0 24 24" fill="none" xmlns="http://www.w3.org/2000/svg">
<path d="M9.99995 1C8.21993 1 6.47988 1.52784 4.99985 2.51677C3.51982 3.50569 2.36627 4.91129 1.68508 6.55582C1.0039 8.20034 0.825671 10.0099 1.17294 11.7558C1.5202 13.5016 2.37736 15.1052 3.63603 16.3639C4.89469 17.6225 6.49833 18.4797 8.24415 18.827C9.98997 19.1742 11.7996 18.996 13.4441 18.3148C15.0886 17.6336 16.4942 16.4801 17.4831 15.0001C18.4721 13.52 18.9999 11.78 18.9999 9.99995C18.9998 7.61306 18.0515 5.32398 16.3637 3.63619C14.6759 1.94841 12.3868 1.00015 9.99995 1V1Z" stroke="#C0AF93" stroke-width="2" stroke-miterlimit="10"/>
<path d="M16.7145 16.7144L22.9999 22.9998" stroke="#C0AF93" stroke-width="2" stroke-miterlimit="10" stroke-linecap="round"/>
</svg>
